<?xml version="1.0" encoding="utf-8"?>
<!-- Generator: Adobe Illustrator 23.0.1, SVG Export Plug-In . SVG Version: 6.00 Build 0)  -->
<svg version="1.1" id="Layer_1" xmlns="http://www.w3.org/2000/svg" xmlns:xlink="http://www.w3.org/1999/xlink" x="0px" y="0px"
	 viewBox="0 0 554.1 136.6" style="enable-background:new 0 0 554.1 136.6;" xml:space="preserve">
<style type="text/css">
	.st0{fill:#E60505;}
	.st1{fill:#FFFFFF;}
</style>
<title>Asset 1</title>
<g>
	<path class="st0" d="M68.3,92.7c13.5,0,24.4-10.9,24.4-24.4S81.8,43.9,68.3,43.9S43.9,54.8,43.9,68.3
		C43.9,81.7,54.8,92.7,68.3,92.7C68.2,92.7,68.3,92.7,68.3,92.7z"/>
	<path class="st0" d="M40.1,92.7c-13.5,0-24.4-10.9-24.4-24.4s10.9-24.4,24.4-24.4l0,0V92.7z"/>
	<path class="st0" d="M96.4,119.6V96.4h23.2C119.6,109.2,109.2,119.6,96.4,119.6L96.4,119.6z"/>
	<path class="st0" d="M40.1,16.9v23.2H16.9C16.9,27.3,27.3,16.9,40.1,16.9L40.1,16.9"/>
	<path class="st0" d="M40.1,119.6V96.4H16.9C16.9,109.2,27.3,119.6,40.1,119.6L40.1,119.6z"/>
	<path class="st0" d="M124.6,89.2V47.3c11.6,6.9,15.4,21.8,8.5,33.4C131,84.2,128.1,87.1,124.6,89.2z"/>
	<path class="st0" d="M47.3,11.9h41.9C82.3,0.3,67.4-3.5,55.8,3.4C52.3,5.5,49.4,8.4,47.3,11.9z"/>
	<path class="st0" d="M88.9,124.6H47c6.9,11.6,21.9,15.4,33.4,8.5C83.9,131,86.9,128.1,88.9,124.6L88.9,124.6z"/>
	<path class="st0" d="M92.7,96.4c0,13.5-10.9,24.4-24.4,24.4s-24.4-10.9-24.4-24.4l0,0H92.7z"/>
	<path class="st0" d="M96.4,92.7c13.5,0,24.4-10.9,24.4-24.4s-10.9-24.4-24.4-24.4V92.7z"/>
	<path class="st0" d="M92.7,40.1c0-13.5-10.9-24.4-24.4-24.4S43.9,26.6,43.9,40.1H92.7z"/>
	<path class="st0" d="M11.9,89.2V47.3C0.3,54.2-3.5,69.2,3.4,80.8C5.5,84.2,8.4,87.2,11.9,89.2z"/>
	<path class="st0" d="M119.6,40.1H96.4V17C109.2,17,119.6,27.4,119.6,40.1"/>
</g>
<g>
	<path class="st1" d="M300.4,74c-2.5,35.7-33.8,62.3-68.8,62.3c-37.5,0-69.7-29.9-69.7-68c0-17.2,7.9-34.7,20.1-46.7
		c13.6-13.4,31-19.9,49.6-19.9c13.5-0.1,26.8,3.8,38.2,11.1c8.5,5.6,19.4,15.7,22.7,25.7h-14.8c-9.1-15.3-28-24.3-46.1-24.3
		c-14.3-0.1-28.1,5.1-38.7,14.7c-10.7,9.9-18,24.8-18,39.6c0,31.7,26.2,55.3,57.2,55.3c23.2,0,46.1-15.3,52.6-38h-53.8V74H300.4z"/>
	<path class="st1" d="M318.9,90.8c0.7,18.2,18.4,33.1,36.1,33.1c14.2,0,28.5-7.9,34.3-21h13.4c-6.7,19.3-26.3,33.4-46.6,33.4
		c-27.7,0.4-50.4-21.7-50.8-49.3c-0.4-27.7,21.7-50.4,49.3-50.8c15.4-0.2,30,6.7,39.7,18.6c9,11,10.8,22.3,11.2,36.1L318.9,90.8z
		 M392.6,79c-3.4-17-18.9-30.4-36.6-30.4c-18,0-33.9,12.7-37.1,30.4H392.6z"/>
	<path class="st1" d="M411.1,38.4h12.3v12.5h0.4c4.4-10,14.6-14.6,25.3-14.6c12.1-0.2,23.6,5.2,31.2,14.6c0.9,1.2,1.6,2.5,2.5,3.7
		c0.5-1.2,1.2-2.3,1.9-3.7c6.7-9.3,19.2-14.6,30.5-14.6c10.4,0,20.4,5.1,29.9,14.6c7.8,7.8,9,17.6,9,28.9v54.9H541V81
		c0-7-0.5-14.8-4.8-20.8c-4.9-7.2-13.1-11.5-21.8-11.4c-8.4,0.1-16.3,4.1-21.3,10.9c-4.2,6-4,14.3-4,21.3v53.7h-13V79.6
		c0-7.2-0.4-12.9-4.6-19.2c-4.9-7.1-13-11.5-21.6-11.6c-8.1,0-16.2,3.5-21.1,10.2c-4.4,6.3-4.6,13.2-4.6,20.6v55.1h-13L411.1,38.4z"
		/>
</g>
</svg>
